PathFileType  4	(X/Y/Z) C:\Users\antoi\Documents\MyRepositories\mobilecap\ResultsAnalysis
DataRate	CameraRate	NumFrames	NumMarkers	Units	OrigDataRate	OrigDataStartFrame	OrigNumFrames
100.0	100.0	5	51	mm	100.0	49	130
Frame#	Time	r_knee			r_shank_antsup			r_ankle			r_calc			r_5meta			r_toe			L_knee			L_shank_antsup			L_ankle			L_calc			L_5meta			L_toe			r_sh2			r_sh3			r_sh4			L_sh2			L_sh3			r_thigh1			r_thigh2			r_thigh3			r_thigh4			r_thigh5			L_thigh1			L_thigh2			L_thigh3			L_thigh4			r.ASIS			r.PSIS			L.ASIS			L.PSIS			C7			R_Shoulder			L_Shoulder			R_Sternum			L_Sternum			R_humerus			R_elbow_med			R_elbow_lat			R_forearm			R_wrist_radius			R_wrist_ulna			L_humerus			L_elbow_med			L_elbow_lat			L_forearm			L_wrist_radius			L_wrist_ulna			R_HJC			L_HJC			R_HJC_reg			L_HJC_reg			
		X1	Y1	Z1	X2	Y2	Z2	X3	Y3	Z3	X4	Y4	Z4	X5	Y5	Z5	X6	Y6	Z6	X7	Y7	Z7	X8	Y8	Z8	X9	Y9	Z9	X10	Y10	Z10	X11	Y11	Z11	X12	Y12	Z12	X13	Y13	Z13	X14	Y14	Z14	X15	Y15	Z15	X16	Y16	Z16	X17	Y17	Z17	X18	Y18	Z18	X19	Y19	Z19	X20	Y20	Z20	X21	Y21	Z21	X22	Y22	Z22	X23	Y23	Z23	X24	Y24	Z24	X25	Y25	Z25	X26	Y26	Z26	X27	Y27	Z27	X28	Y28	Z28	X29	Y29	Z29	X30	Y30	Z30	X31	Y31	Z31	X32	Y32	Z32	X33	Y33	Z33	X34	Y34	Z34	X35	Y35	Z35	X36	Y36	Z36	X37	Y37	Z37	X38	Y38	Z38	X39	Y39	Z39	X40	Y40	Z40	X41	Y41	Z41	X42	Y42	Z42	X43	Y43	Z43	X44	Y44	Z44	X45	Y45	Z45	X46	Y46	Z46	X47	Y47	Z47	X48	Y48	Z48	X49	Y49	Z49	X50	Y50	Z50	X51	Y51	Z51	

49	0.48000000	244.33096	536.40917	-41.54699	257.35555	436.46954	-60.87466	119.04876	124.31172	-106.68034	30.02211	79.06951	-147.52361	231.78518	46.18689	-74.95192	285.82535	71.30691	-145.21589	502.90365	565.96241	-341.48730	529.83445	483.06557	-363.90581	590.40181	151.37622	-309.43123	537.53277	74.67027	-252.02084	721.59430	113.73543	-348.85676	770.40985	161.50312	-290.48492	219.74408	330.91446	-44.61055	201.66295	461.92810	-16.37910	146.22972	359.65226	-14.69766	442.40585	464.01449	-353.65189	482.81393	347.93680	-347.82157	366.59835	844.12047	-0.97476	359.88100	735.57776	-21.06422	303.10295	711.48837	6.77936	254.21651	845.55532	12.02036	250.51487	732.10033	-2.80737	449.56831	857.03386	-341.61693	514.20161	733.01932	-330.87233	355.68603	804.10035	-368.19194	417.16809	682.53363	-361.41398	390.62828	1072.93753	-37.48210	205.78392	1070.15355	-106.79459	381.95785	1070.39327	-290.68030	198.52648	1066.79260	-217.28537	302.66126	1625.97080	-170.07505	375.19678	1549.81786	-14.65763	298.90774	1547.72367	-343.26949	402.87110	1510.32567	-158.53319	389.22089	1507.95013	-213.71221	410.11889	1405.38630	56.17108	364.12336	1188.66284	53.60775	391.81864	1220.48908	128.83178	521.31750	1101.18675	138.03111	598.79947	1044.74114	120.66655	564.77958	1028.56851	148.10649	234.37706	1423.35600	-405.50619	146.49612	1217.15949	-300.50819	141.96077	1218.02653	-383.15685	156.16184	1145.91863	-407.30846	147.76435	965.51421	-400.02287	106.49865	973.38469	-403.52651	320.08654	949.88505	-57.86800	309.92424	953.08882	-264.56001	338.59330	987.46020	-67.24234	327.63701	982.38761	-234.01956	
50	0.49000000	252.91820	535.28049	-41.94167	264.48338	434.97094	-61.10659	120.14787	125.30185	-106.91110	30.44695	80.26668	-147.81837	231.94961	46.12958	-74.90654	286.35009	70.72291	-145.12220	515.23774	561.62577	-341.20768	545.22652	479.88777	-363.41086	622.37251	151.07597	-308.12844	573.16605	72.24485	-250.52910	755.84660	119.39863	-346.55628	801.83757	170.15763	-288.43215	224.58948	329.97509	-44.89854	209.01090	461.46128	-16.85691	151.67152	360.22354	-15.19112	458.87494	456.92642	-352.68077	504.70778	342.81372	-346.78589	378.24426	841.85275	-0.85141	370.68836	733.35645	-20.72070	313.45177	709.93297	6.63504	265.79092	844.41366	11.62280	260.99959	731.03970	-3.15387	462.54166	852.94145	-341.54516	526.46825	728.54577	-330.85631	368.65600	800.63144	-369.16533	429.39355	678.76829	-361.98998	404.73258	1070.46987	-38.12549	220.06411	1067.70855	-108.48064	397.20350	1067.60973	-291.57254	213.43253	1064.07999	-218.98246	317.04011	1623.41341	-171.07727	389.11517	1547.38416	-15.58932	314.05062	1544.95726	-344.48696	417.24756	1507.75247	-159.33022	403.76828	1505.43952	-214.53108	425.27154	1403.72001	55.38412	381.83599	1186.44114	54.05131	409.50439	1219.11985	129.11881	542.12847	1103.09738	136.84766	620.91570	1048.78160	118.45863	587.82002	1031.76818	146.45549	247.91499	1421.04569	-406.14701	157.32373	1217.23748	-298.88825	151.85088	1217.72370	-381.36839	163.62990	1145.28609	-405.35844	149.44002	965.12045	-396.48198	108.48566	974.43182	-400.03222	334.17842	947.42752	-58.80239	325.02220	950.33776	-265.54384	352.61404	985.06438	-68.00051	342.59430	979.58175	-234.96461	
51	0.50000000	261.95162	534.16557	-42.28340	272.05246	433.47537	-61.26170	121.42755	126.51128	-107.02932	31.03963	81.85430	-148.03749	232.16051	46.03634	-74.85741	286.96878	70.11448	-144.98330	527.42197	557.23084	-340.88038	559.92731	476.44094	-362.83172	652.11950	150.98805	-306.43614	606.51420	70.53994	-248.25048	787.30706	124.62210	-344.32417	830.77193	178.16765	-286.79580	229.79451	329.14805	-45.11213	216.82793	461.04942	-17.27934	157.50678	360.91125	-15.61564	474.74675	449.97641	-351.35336	525.48710	337.87514	-345.32006	390.09459	839.65517	-0.72323	381.78647	731.20305	-20.30834	324.10298	708.41983	6.54754	277.55846	843.24625	11.22439	271.75395	729.99374	-3.50634	476.13572	849.03537	-341.97439	539.27277	724.21357	-331.07810	382.19405	797.40270	-370.11121	442.00968	675.19437	-362.35127	418.96546	1068.01988	-38.76937	234.49509	1065.24583	-110.26605	412.63865	1064.76944	-292.50127	228.52762	1061.36645	-220.76158	331.47389	1620.84905	-172.14947	403.07987	1544.91938	-16.55963	329.20176	1542.15082	-345.77166	431.70433	1505.18585	-160.17877	418.38452	1502.91546	-215.41436	440.29853	1401.93558	54.59963	399.19920	1184.16322	54.38533	426.80078	1217.68637	129.32515	562.35520	1104.92652	135.54138	642.33117	1052.70831	116.11915	610.16124	1034.91956	144.68356	261.54075	1418.70696	-406.90807	168.19089	1217.29021	-297.47332	161.82434	1217.45210	-379.76686	171.37328	1144.76382	-403.58144	151.84800	965.03942	-393.21490	111.28556	975.58256	-396.73966	348.39155	944.97787	-59.76089	340.30707	947.54921	-266.54822	366.78225	982.61059	-68.79604	357.75587	976.74078	-235.97390	
52	0.51000000	271.46620	533.11003	-42.55715	280.04213	431.98421	-61.34183	122.90840	127.98277	-107.01241	31.82892	83.89917	-148.15651	232.42508	45.90309	-74.79346	287.66825	69.48622	-144.79107	539.60494	552.89064	-340.50891	574.04648	472.80596	-362.17872	679.41799	150.79561	-304.37528	637.21540	69.24156	-245.22379	815.80163	128.96832	-342.16264	857.09992	185.12374	-285.56732	235.44411	328.51845	-45.24024	225.16644	460.71985	-17.63331	163.77528	361.74789	-15.94902	490.04271	443.35262	-349.72029	545.03867	333.17083	-343.46888	402.18432	837.56137	-0.61427	393.18906	729.15089	-19.85588	335.05926	706.97842	6.49473	289.54987	842.09826	10.76518	282.82391	728.97828	-3.90485	490.41572	845.36247	-342.86634	552.62445	720.05281	-331.54350	396.25081	794.44370	-370.81867	455.00051	671.84713	-362.47158	433.32322	1065.63363	-39.37043	249.09687	1062.81388	-112.15639	428.27022	1061.92438	-293.41450	243.79990	1058.70884	-222.62496	345.97435	1618.32652	-173.29918	417.11892	1542.47107	-17.58146	344.33338	1539.37530	-347.11859	446.25836	1502.68044	-161.08858	433.07289	1500.44034	-216.37779	455.18988	1400.06761	53.80686	416.17016	1181.86603	54.60459	443.67382	1216.21617	129.44631	581.95421	1106.67486	134.13059	663.00017	1056.50902	113.68482	631.72272	1038.01222	142.81085	275.21103	1416.41650	-407.77021	179.13114	1217.35923	-296.25242	171.91873	1217.24571	-378.35563	179.43591	1144.36420	-401.98086	155.11811	965.20866	-390.22377	114.96916	976.80580	-393.69098	362.71229	942.58293	-60.72283	355.79117	944.77701	-267.55289	381.12748	980.14323	-69.57605	373.10358	973.92177	-236.98668	
53	0.52000000	281.48625	532.14622	-42.76221	288.40353	430.47990	-61.36680	124.60855	129.75649	-106.84088	32.83694	86.46378	-148.15334	232.74877	45.73214	-74.70159	288.42805	68.83261	-144.54701	551.97869	548.71783	-340.08121	587.76646	469.07522	-361.45630	704.06201	150.18010	-302.01070	664.87662	68.01776	-241.61346	841.20252	132.02276	-340.02527	880.73284	190.58779	-284.61474	241.62531	328.15857	-45.28139	234.07845	460.48915	-17.90679	170.51761	362.76076	-16.17510	504.85227	437.25310	-347.84562	563.30174	328.75740	-341.29729	414.54661	835.59777	-0.53913	404.91630	727.22553	-19.38989	346.33144	705.63223	6.45308	301.80389	841.01139	10.17165	294.26417	728.00973	-4.38928	505.31291	841.93293	-344.12569	566.46415	716.08281	-332.23815	410.70307	791.72310	-371.17471	468.33028	668.72468	-362.40825	447.81090	1063.34716	-39.91025	263.89140	1060.45899	-114.13669	444.08481	1059.13299	-294.27719	259.23532	1056.15388	-224.55976	360.55153	1615.89116	-174.53463	431.25381	1540.09003	-18.66737	359.42710	1536.70011	-348.51965	460.91219	1500.28427	-162.06910	447.83530	1498.07163	-217.43471	469.93385	1398.16267	52.99100	432.70856	1179.59496	54.69790	460.09223	1214.73762	129.46655	600.88709	1108.34161	132.63338	682.88271	1060.16729	111.19329	652.44072	1041.03016	140.86045	288.89155	1414.25301	-408.71476	190.19890	1217.47892	-295.21333	182.18856	1217.13279	-377.13537	187.86379	1144.09523	-400.56196	159.35460	965.57855	-387.51664	119.60047	978.07951	-390.92065	377.14339	940.28162	-61.67801	371.47154	942.07575	-268.54678	395.67208	977.71761	-70.30369	388.60642	971.18115	-237.95251	
